<?xml version="1.0" encoding="UTF-8" standalone="no"?>
<!-- Uploaded to: SVG Repo, www.svgrepo.com, Generator: SVG Repo Mixer Tools -->

<svg
   height="800px"
   width="800px"
   version="1.1"
   id="Capa_1"
   viewBox="0 0 57.849 57.849"
   xml:space="preserve"
   sodipodi:docname="dart-throw.svg"
   inkscape:version="1.3.2 (091e20ef0f, 2023-11-25)"
   xmlns:inkscape="http://www.inkscape.org/namespaces/inkscape"
   xmlns:sodipodi="http://sodipodi.sourceforge.net/DTD/sodipodi-0.dtd"
   xmlns="http://www.w3.org/2000/svg"
   xmlns:svg="http://www.w3.org/2000/svg"><defs
   id="defs2">
	

		
		
	</defs><sodipodi:namedview
   id="namedview2"
   pagecolor="#505050"
   bordercolor="#ffffff"
   borderopacity="1"
   inkscape:showpageshadow="0"
   inkscape:pageopacity="0"
   inkscape:pagecheckerboard="1"
   inkscape:deskcolor="#d1d1d1"
   inkscape:zoom="0.4775"
   inkscape:cx="194.7644"
   inkscape:cy="451.3089"
   inkscape:window-width="1920"
   inkscape:window-height="1011"
   inkscape:window-x="0"
   inkscape:window-y="32"
   inkscape:window-maximized="1"
   inkscape:current-layer="Capa_1" />
<g
   id="g2"
   transform="matrix(1.7062254,0,0,1.7062254,-18.287074,0.18122216)"><path
     id="rect2"
     style="fill:#000000;stroke:none;stroke-width:0.0568719"
     d="m 20.238958,5.5809597 -0.714921,0.690064 c -0.340999,-0.037 -0.682091,-0.069072 -1.023091,-0.093072 -0.851999,-0.06 -1.704881,-0.093943 -2.55688,-0.091943 -0.851999,0 -1.706,0.031931 -2.558999,0.092931 -0.808423,0.059778 -1.617726,0.1490975 -2.426241,0.3070404 v 0.041946 c 0.808516,0.1570867 1.617817,0.2462342 2.426241,0.3050631 0.410999,0.03 0.820986,0.050944 1.230986,0.066944 -0.444,0.3709997 -0.785108,0.914132 -0.947108,1.6531312 -0.837999,3.8419956 -1.209946,8.8269396 2.070051,11.7069366 2.477997,2.175998 5.617021,2.018008 8.495018,0.993009 0.606999,3.280997 1.392027,6.518043 2.420026,9.69804 v 2.74119 h 12.154363 c -0.516366,-1.290012 -1.006351,-2.593599 -1.454417,-3.919214 -0.022,-0.468999 -0.10598,-0.959025 -0.27498,-1.476025 -0.562,-1.725998 -1.040941,-3.469054 -1.470941,-5.225053 1.161999,0.918 2.279977,1.905068 3.355976,2.963067 2.908998,2.860997 7.382996,-1.608002 4.471999,-4.471999 -3.200997,-3.147997 -6.798018,-5.847004 -10.781014,-7.925002 -1.370999,-1.127999 -3.367002,-1.598957 -5.006,-1.158958 -0.992999,0.266 -1.788006,0.752942 -2.397005,1.383942 -0.313,0.072 -0.632995,0.197944 -0.956995,0.389944 -1.149998,0.677999 -2.240986,1.197111 -3.553985,1.456111 0.353,-0.069 -0.534983,-0.107058 -0.547983,-0.05706 -0.068,-0.018 -0.135116,-0.03706 -0.201116,-0.05706 -0.002,-0.003 -0.0029,-0.0039 -0.0049,-0.0059 0.18,0.025 -0.08401,-0.159028 -0.136007,-0.159028 -0.082,-0.136 -0.164035,-0.270954 -0.233035,-0.413954 0.196,0.376 -0.192908,-0.942076 -0.181908,-0.838076 -0.142999,-1.332999 0.04989,-2.64593 0.332886,-3.943929 0.336,-1.5399979 -0.373956,-2.7339909 -1.419955,-3.3919903 0.051,-0.003 0.102966,-0.00405 0.151966,-0.00805 0.379,-0.027 0.758067,-0.061925 1.137066,-0.1059247 l 0.600946,0.7039048 h 2.506037 V 5.5809597 Z M 19.934037,15.57799 c 0.019,0.004 0.03601,0.008 0.04901,0.01003 0.002,0.002 0.0039,0.0029 0.0059,0.0059 -0.019,-0.006 -0.03694,-0.01096 -0.05494,-0.01596 z" /><circle
     style="fill:#010002"
     cx="29.039"
     cy="5.5580001"
     r="5.5580001"
     id="circle1" /></g>
</svg>
